PathFileType	4	(X/Y/Z)	Walk1.trc
DataRate	CameraRate	NumFrames	NumMarkers	Units	OrigDataRate	OrigDataStartFrame	OrigNumFrames
200.000000	200.000000	9	59	mm	200.000000	520	584
Frame#	Times		LFHD		RFHD		LBHD		RBHD		C7		T10		CLAV		STRN		RBack		LASI		RACR1		RUA1		RElbow		RFA1		RWRR		RWRU		RCAR		LACR1		LUA1		LElbow		LFA1		LWRU		LCAR		RTH1		RTH3		RTB1		RTB3		RTB4		LTH3		LTH2		LTH4		LLFC		LTB2		LTB4		LToe		RTH2		LMMAL		RTH4		LTH1		LTB1		RTB2		LCAL		LMT1		LTB3		LMT5		RElbowM		LWRR		LLMAL		RLFC		RPSI		LPSI		LElbowM		RASI		RMT1		RToe		RCAL		RMMAL		RLMAL		RMT5
			X1	Y1	Z1	X2	Y2	Z2	X3	Y3	Z3	X4	Y4	Z4	X5	Y5	Z5	X6	Y6	Z6	X7	Y7	Z7	X8	Y8	Z8	X9	Y9	Z9	X10	Y10	Z10	X11	Y11	Z11	X12	Y12	Z12	X13	Y13	Z13	X14	Y14	Z14	X15	Y15	Z15	X16	Y16	Z16	X17	Y17	Z17	X18	Y18	Z18	X19	Y19	Z19	X20	Y20	Z20	X21	Y21	Z21	X22	Y22	Z22	X23	Y23	Z23	X24	Y24	Z24	X25	Y25	Z25	X26	Y26	Z26	X27	Y27	Z27	X28	Y28	Z28	X29	Y29	Z29	X30	Y30	Z30	X31	Y31	Z31	X32	Y32	Z32	X33	Y33	Z33	X34	Y34	Z34	X35	Y35	Z35	X36	Y36	Z36	X37	Y37	Z37	X38	Y38	Z38	X39	Y39	Z39	X40	Y40	Z40	X41	Y41	Z41	X42	Y42	Z42	X43	Y43	Z43	X44	Y44	Z44	X45	Y45	Z45	X46	Y46	Z46	X47	Y47	Z47	X48	Y48	Z48	X49	Y49	Z49	X50	Y50	Z50	X51	Y51	Z51	X52	Y52	Z52	X53	Y53	Z53	X54	Y54	Z54	X55	Y55	Z55	X56	Y56	Z56	X57	Y57	Z57	X58	Y58	Z58	X59	Y59	Z59

520	2.6	612.75	1417	-21.058	602.36	1404.8	74.56	484.43	1342.5	-54.456	471.36	1333.8	78.282	440.29	1254.8	13.33	349.84	1057.3	30.477	579.93	1167.6	7.9072	631.37	1061.6	8.3026	393.88	1134.3	136.31	556.43	801.92	-137.3	516.71	1196.8	191.28	536.3	1054.4	270.27	538.61	929.55	306.7	622.32	827.83	301.46	661.74	740.35	257.15	631.1	727.42	321.34	691.35	689.11	307.16	491.19	1194.1	-176.29	481.06	1034.3	-250.37	436.23	923.7	-268.21	480.01	827.74	-311.31	456.79	721.03	-341.81	492.18	670.45	-350.86	486.69	623.03	233.79	450.97	458.87	190.7	386	265.47	121.01	261.71	151.35	88.585	320.94	209.29	104.69	568.22	483.24	-136.38	594.06	587.16	-136.33	547.22	563.91	-165.02	611.49	402.35	-98.336	628.42	217.77	-84.436	644.8	220.8	-24.468	783.48	34.613	-15.216	522.83	535.15	193.76	628.17	75.197	24.57	467.06	541	215.08	526.55	644.7	-187.46	644.5	308.21	-30.209	291.39	229.92	153.83	567	42.318	-10.238	734.76	36.293	9.0558	651.99	138.05	-20.049	693.46	19.611	-74.321	487.26	888.47	239.56	504.37	713.86	-301.3	609.97	58.128	-53.974	404.15	379.05	172.6	310.51	829.69	81.921	302.18	826.57	-23.756	415.08	897.63	-199.33	570.76	812.54	180.09	236.02	41.093	33.656	280.63	27.325	63.888	129.13	157.39	69.58	202.06	137.81	36.88	180.51	131.47	115.93	209.45	36.739	122.01
521	2.605	618.64	1417.6	-21.705	608.19	1405.6	73.903	490.25	1343.3	-55.171	477.11	1334.7	77.6	446.03	1255.6	12.577	355.57	1058.1	29.972	585.68	1168.4	7.3006	637.05	1062.5	7.1354	399.54	1135.3	135.77	562.68	803.09	-137.46	522.45	1197.8	190.59	541.41	1055.3	269.56	543.31	930.34	305.72	626.4	828.09	300.92	665.38	740.22	256.86	634.48	727.6	320.99	694.5	688.8	307	497.44	1194.9	-176.92	488.02	1035	-250.8	443.22	924.24	-268.57	487.21	828.27	-311.38	464.22	721.44	-341.74	499.68	670.8	-350.53	494.14	623.32	233.7	461.04	458.46	191.43	395.37	265.41	122.91	269.1	153.57	89.922	329.34	210.42	106.24	573.8	484.17	-136.97	599.85	588.06	-136.57	553.07	564.95	-165.47	616.36	402.68	-98.804	631.01	217.58	-84.775	647.13	220.48	-24.716	783.71	33.72	-14.81	531.65	535.91	193.98	628.41	75.17	24.562	475.81	541	215.39	532.69	645.81	-187.86	648.03	307.89	-30.574	299.61	232.18	154.71	567.07	42.495	-10.382	734.8	35.667	9.2802	653.22	137.63	-20.11	693.48	19.606	-74.514	492.22	889.55	238.1	511.69	714.43	-301.09	610.29	58.149	-54.032	414.81	378.59	173.69	316.67	829.69	82.301	307.89	827.29	-23.704	421.89	898.37	-199.67	577.13	812.79	178.78	239.52	42.572	34.268	282.24	27.217	64.98	137.36	163.27	69.313	209.84	141.06	37.57	187.04	135.49	116.17	212.19	39.103	122.08
522	2.61	624.53	1418.3	-22.34	614.02	1406.3	73.257	496.06	1344.1	-55.859	482.84	1335.6	76.948	451.73	1256.4	11.875	361.28	1058.9	29.492	591.4	1169.3	6.7404	642.68	1063.4	6.0074	405.17	1136.4	135.27	568.88	804.32	-137.66	528.15	1198.9	189.94	546.5	1056.3	268.9	547.98	931.2	304.78	630.44	828.42	300.41	668.97	740.17	256.57	637.83	727.84	320.65	697.62	688.55	306.81	503.66	1195.8	-177.5	495.04	1035.7	-251.19	450.24	924.85	-268.91	494.48	828.89	-311.43	471.78	721.95	-341.64	507.31	671.22	-350.16	501.61	623.64	233.59	471.31	458.09	192.14	405.05	265.42	124.79	276.87	155.82	91.281	338.09	211.61	107.79	579.08	484.98	-137.59	605.47	588.81	-136.93	558.69	565.88	-165.97	620.96	402.9	-99.287	633.41	217.38	-85.119	649.31	220.16	-24.983	783.87	33.038	-14.441	540.58	536.76	194.21	628.62	75.159	24.544	484.68	541.01	215.67	538.65	646.84	-188.3	651.37	307.56	-30.963	308.2	234.5	155.57	567.11	42.641	-10.512	734.78	35.212	9.4777	654.34	137.22	-20.198	693.47	19.658	-74.682	497.15	890.71	236.67	519.14	715.1	-300.85	610.54	58.178	-54.085	425.7	378.17	174.74	322.83	829.75	82.666	313.57	828.1	-23.653	428.72	899.18	-200	583.45	813.07	177.47	243.62	44.19	35.034	284.42	27.131	66.316	146	169.02	69.088	218.01	144.28	38.258	194.02	139.5	116.43	215.51	41.682	122.26
523	2.615	630.41	1418.9	-22.963	619.85	1407.1	72.625	501.84	1345	-56.518	488.56	1336.6	76.327	457.36	1257.2	11.222	366.97	1059.6	29.036	597.09	1170.2	6.2287	648.27	1064.4	4.9285	410.77	1137.5	134.79	575.02	805.59	-137.88	533.8	1200.1	189.32	551.56	1057.3	268.29	552.61	932.1	303.88	634.47	828.81	299.91	672.52	740.19	256.28	641.18	728.16	320.32	700.72	688.36	306.59	509.83	1196.7	-178.01	502.11	1036.5	-251.54	457.29	925.52	-269.24	501.82	829.58	-311.46	479.47	722.52	-341.54	515.07	671.71	-349.76	509.1	623.98	233.47	481.74	457.76	192.82	414.99	265.51	126.61	285.01	158.09	92.629	347.18	212.86	109.3	584.06	485.68	-138.22	610.91	589.4	-137.41	564.07	566.7	-166.51	625.28	403.02	-99.782	635.63	217.15	-85.465	651.36	219.83	-25.271	783.99	32.529	-14.103	549.61	537.69	194.45	628.81	75.159	24.52	493.63	541.05	215.93	544.41	647.77	-188.78	654.52	307.22	-31.376	317.13	236.84	156.41	567.12	42.765	-10.631	734.73	34.897	9.6527	655.37	136.83	-20.313	693.45	19.749	-74.827	502.05	891.93	235.28	526.69	715.86	-300.57	610.73	58.212	-54.13	436.79	377.8	175.74	328.96	829.88	83.003	319.23	828.97	-23.606	435.55	900.04	-200.32	589.73	813.37	176.19	248.37	45.934	35.97	287.26	27.08	67.913	155.01	174.57	68.906	226.56	147.45	38.93	201.45	143.49	116.71	219.48	44.463	122.57
524	2.62	636.29	1419.6	-23.568	625.68	1407.8	72.01	507.6	1345.8	-57.148	494.25	1337.6	75.737	462.95	1258	10.618	372.64	1060.4	28.6	602.74	1171.1	5.7666	653.81	1065.4	3.9078	416.34	1138.6	134.34	581.08	806.9	-138.12	539.39	1201.2	188.74	556.59	1058.4	267.73	557.2	933.05	303.04	638.47	829.26	299.44	676.04	740.27	256	644.53	728.54	320.01	703.82	688.21	306.35	515.97	1197.7	-178.47	509.22	1037.4	-251.86	464.36	926.24	-269.57	509.23	830.34	-311.48	487.28	723.15	-341.44	522.98	672.24	-349.32	516.59	624.35	233.34	492.31	457.49	193.45	425.18	265.67	128.33	293.5	160.37	93.931	356.56	214.15	110.75	588.74	486.25	-138.87	616.17	589.82	-138.02	569.19	567.4	-167.09	629.34	403.04	-100.29	637.67	216.9	-85.813	653.29	219.5	-25.579	784.08	32.158	-13.795	558.71	538.7	194.67	628.98	75.167	24.49	502.65	541.11	216.15	549.98	648.6	-189.29	657.51	306.85	-31.813	326.39	239.18	157.21	567.11	42.871	-10.741	734.66	34.696	9.8083	656.32	136.44	-20.457	693.42	19.865	-74.949	506.92	893.2	233.95	534.36	716.7	-300.27	610.86	58.248	-54.169	448.03	377.48	176.67	335.06	830.06	83.303	324.87	829.89	-23.565	442.39	900.95	-200.65	595.95	813.71	174.94	253.82	47.783	37.089	290.86	27.079	69.774	164.35	179.88	68.763	235.43	150.56	39.573	209.31	147.43	117.01	224.15	47.424	123.02
525	2.625	642.15	1420.3	-24.155	631.49	1408.6	71.414	513.33	1346.7	-57.749	499.93	1338.7	75.179	468.48	1258.9	10.06	378.3	1061.2	28.182	608.36	1172	5.3545	659.32	1066.4	2.9541	421.87	1139.7	133.91	587.07	808.22	-138.39	544.91	1202.4	188.2	561.59	1059.5	267.23	561.74	934.02	302.25	642.46	829.76	299.01	679.54	740.41	255.71	647.9	728.97	319.72	706.92	688.12	306.08	522.05	1198.7	-178.87	516.34	1038.3	-252.14	471.44	927	-269.9	516.7	831.15	-311.48	495.22	723.83	-341.33	531.03	672.83	-348.86	524.06	624.74	233.18	502.97	457.3	194.04	435.59	265.92	129.93	302.32	162.63	95.153	366.24	215.49	112.09	593.12	486.69	-139.51	621.24	590.07	-138.74	574.07	567.98	-167.7	633.16	402.98	-100.8	639.55	216.64	-86.162	655.12	219.15	-25.905	784.15	31.892	-13.512	567.84	539.8	194.89	629.15	75.178	24.456	511.7	541.21	216.32	555.35	649.31	-189.82	660.36	306.47	-32.273	335.97	241.48	157.96	567.09	42.966	-10.846	734.57	34.584	9.9465	657.21	136.06	-20.63	693.38	19.995	-75.052	511.74	894.5	232.68	542.14	717.6	-299.95	610.96	58.286	-54.2	459.37	377.24	177.53	341.12	830.3	83.56	330.5	830.87	-23.533	449.22	901.88	-200.98	602.12	814.09	173.75	260.01	49.706	38.399	295.27	27.144	71.895	173.96	184.88	68.65	244.6	153.57	40.175	217.6	151.28	117.32	229.57	50.532	123.64
526	2.63	647.99	1420.9	-24.718	637.29	1409.4	70.842	519.04	1347.6	-58.32	505.57	1339.7	74.65	473.97	1259.7	9.5454	383.94	1062	27.778	613.95	1172.9	4.992	664.79	1067.5	2.0754	427.36	1140.7	133.5	592.97	809.54	-138.66	550.36	1203.6	187.71	566.56	1060.6	266.79	566.25	935.01	301.54	646.45	830.29	298.62	683.02	740.6	255.44	651.29	729.45	319.45	710.05	688.07	305.8	528.08	1199.7	-179.22	523.48	1039.2	-252.39	478.54	927.76	-270.23	524.23	831.99	-311.47	503.27	724.54	-341.22	539.21	673.45	-348.38	531.51	625.17	233.01	513.69	457.19	194.56	446.19	266.28	131.35	311.47	164.87	96.266	376.17	216.88	113.3	597.22	487.01	-140.15	626.13	590.16	-139.55	578.7	568.44	-168.33	636.75	402.83	-101.31	641.29	216.35	-86.512	656.86	218.8	-26.249	784.22	31.706	-13.252	576.99	540.97	195.09	629.32	75.194	24.42	520.77	541.36	216.45	560.5	649.92	-190.36	663.08	306.07	-32.753	345.84	243.71	158.65	567.06	43.054	-10.95	734.48	34.539	10.069	658.04	135.68	-20.829	693.34	20.129	-75.138	516.53	895.82	231.49	550.02	718.55	-299.61	611.03	58.323	-54.225	470.8	377.09	178.31	347.15	830.59	83.768	336.11	831.88	-23.514	456.05	902.81	-201.33	608.23	814.51	172.62	266.96	51.667	39.9	300.55	27.293	74.256	183.82	189.53	68.549	254.05	156.47	40.726	226.3	155.01	117.64	235.75	53.745	124.41
527	2.635	653.82	1421.5	-25.256	643.06	1410.2	70.296	524.72	1348.5	-58.862	511.2	1340.8	74.152	479.41	1260.5	9.0721	389.56	1062.8	27.387	619.5	1173.8	4.678	670.23	1068.5	1.2787	432.81	1141.7	133.09	598.79	810.84	-138.95	555.72	1204.7	187.26	571.5	1061.8	266.41	570.72	936	300.9	650.42	830.85	298.26	686.51	740.84	255.18	654.71	729.96	319.21	713.22	688.08	305.51	534.06	1200.7	-179.52	530.63	1040.1	-252.61	485.64	928.54	-270.56	531.83	832.85	-311.46	511.43	725.26	-341.12	547.54	674.11	-347.89	538.92	625.64	232.8	524.43	457.18	195.02	456.97	266.73	132.59	320.93	167.06	97.249	386.36	218.29	114.35	601.07	487.21	-140.77	630.85	590.1	-140.45	583.11	568.78	-168.97	640.15	402.61	-101.82	642.92	216.05	-86.861	658.53	218.43	-26.607	784.28	31.577	-13.016	586.12	542.24	195.26	629.49	75.212	24.383	529.83	541.56	216.52	565.46	650.41	-190.91	665.69	305.65	-33.247	355.99	245.86	159.26	567.03	43.139	-11.054	734.39	34.541	10.178	658.84	135.31	-21.05	693.31	20.26	-75.211	521.27	897.13	230.39	558	719.53	-299.25	611.08	58.359	-54.244	482.26	377.05	178.99	353.12	830.93	83.923	341.71	832.92	-23.51	462.87	903.73	-201.69	614.28	814.97	171.58	274.67	53.628	41.583	306.74	27.536	76.824	193.9	193.8	68.445	263.77	159.23	41.224	235.39	158.6	117.97	242.7	57.012	125.35
528	2.64	659.61	1422.2	-25.765	648.81	1411	69.779	530.37	1349.4	-59.375	516.79	1341.9	73.681	484.82	1261.3	8.6368	395.16	1063.5	27.004	625.03	1174.7	4.4107	675.64	1069.5	0.56995	438.22	1142.7	132.69	604.53	812.12	-139.24	561	1205.9	186.86	576.4	1062.9	266.09	575.14	936.97	300.34	654.4	831.44	297.96	689.99	741.13	254.93	658.16	730.51	319	716.42	688.13	305.21	539.99	1201.7	-179.79	537.76	1040.9	-252.81	492.75	929.3	-270.91	539.47	833.72	-311.44	519.71	725.99	-341.02	556	674.8	-347.39	546.28	626.16	232.58	535.15	457.29	195.42	467.91	267.29	133.61	330.72	169.17	98.09	396.78	219.72	115.24	604.7	487.32	-141.35	635.4	589.91	-141.4	587.31	569.02	-169.61	643.37	402.34	-102.33	644.44	215.74	-87.207	660.13	218.07	-26.973	784.34	31.489	-12.801	595.21	543.59	195.4	629.66	75.233	24.346	538.85	541.84	216.54	570.22	650.8	-191.45	668.2	305.21	-33.749	366.4	247.9	159.8	566.99	43.223	-11.159	734.3	34.574	10.275	659.59	134.94	-21.289	693.28	20.385	-75.272	525.96	898.43	229.4	566.07	720.54	-298.89	611.12	58.394	-54.258	493.73	377.13	179.58	359.03	831.33	84.022	347.29	833.98	-23.524	469.67	904.63	-202.07	620.28	815.49	170.62	283.15	55.545	43.432	313.86	27.883	79.559	204.18	197.63	68.323	273.75	161.79	41.671	244.88	162.01	118.3	250.42	60.279	126.45
